<svg xmlns="http://www.w3.org/2000/svg" width="400" height="290" viewBox="0 0 400 290">
  <g id="组_22760" data-name="组 22760" transform="translate(-48.026 -104.202)">
    <g id="freepik--background-simple--inject-173" transform="translate(48.026 104.202)">
      <path id="路径_32746" data-name="路径 32746" d="M48.146,239.43s2.318,55.083,62.253,91.792,142.962,39.343,210.189,42.831S439.452,348.335,447.233,304.2s-43.588-57.09-71.456-107.333S350.386,130.1,291.417,99.2,140.187,87.281,91.844,140.218,48.146,239.43,48.146,239.43Z" transform="translate(-48.026 -84.335)" fill="#36a6b3"/>
      <path id="路径_32747" data-name="路径 32747" d="M48.146,239.43s2.318,55.083,62.253,91.792,142.962,39.343,210.189,42.831S439.452,348.335,447.233,304.2s-43.588-57.09-71.456-107.333S350.386,130.1,291.417,99.2,140.187,87.281,91.844,140.218,48.146,239.43,48.146,239.43Z" transform="translate(-48.026 -84.335)" fill="#fff" opacity="0.7" style="isolation: isolate"/>
    </g>
    <path id="路径_32748" data-name="路径 32748" d="M199.535,283.045c13.435-11.136,33.577-13.2,52.923-15.19,31.985-3.283,95.769-3.345,107.077,16.789,9.1,16.2-21.057,36.077-24,37.973-37.693,24.283-112.9,29.765-138.462,7.2C183.088,317.463,183.518,296.32,199.535,283.045Z" transform="translate(-1.244 -1.803)" fill="#36a6b3"/>
    <g id="freepik--Text--inject-173" transform="translate(49.376 211.164)">
      <path id="路径_32749" data-name="路径 32749" d="M93.636,217.422c0-2.75,1.27-4.77,4.13-4.77s4.18,2,4.18,4.77v9.66c0,2.75-1.27,4.77-4.18,4.77s-4.13-2-4.13-4.77Zm1.24,9.74c0,2,.81,3.56,2.89,3.56s2.94-1.51,2.94-3.56v-9.82c0-2-.84-3.56-2.94-3.56s-2.89,1.51-2.89,3.56Z" transform="translate(-49.376 -212.572)" fill="#263238"/>
      <path id="路径_32750" data-name="路径 32750" d="M103.916,217.422c0-2.75,1.27-4.77,4.12-4.77s4.18,2,4.18,4.77v9.66c0,2.75-1.26,4.77-4.18,4.77s-4.12-2-4.12-4.77Zm1.24,9.74c0,2,.81,3.56,2.88,3.56s2.94-1.51,2.94-3.56v-9.82c0-2-.83-3.56-2.94-3.56s-2.88,1.51-2.88,3.56Z" transform="translate(-49.376 -212.572)" fill="#263238"/>
      <path id="路径_32751" data-name="路径 32751" d="M118.176,212.812c2.92,0,4.05,1.84,4.05,4.59v2.05c0,3-1.38,4.47-4.37,4.47h-2.35v7.77h-1.24v-18.88Zm-.32,10c2.18,0,3.13-1,3.13-3.26v-2.21c0-2.05-.7-3.37-2.81-3.37h-2.67v8.84Z" transform="translate(-49.376 -212.572)" fill="#263238"/>
      <path id="路径_32752" data-name="路径 32752" d="M132.046,217.372v.4h-1.19v-.48c0-2-.75-3.51-2.8-3.51s-2.81,1.49-2.81,3.48c0,4.59,6.82,4.67,6.82,9.87,0,2.72-1.18,4.72-4.07,4.72s-4.07-2-4.07-4.72v-1h1.19v1c0,2,.78,3.48,2.86,3.48s2.85-1.46,2.85-3.48c0-4.53-6.82-4.61-6.82-9.87,0-2.83,1.24-4.66,4-4.69S132.046,214.652,132.046,217.372Z" transform="translate(-49.376 -212.572)" fill="#263238"/>
      <path id="路径_32753" data-name="路径 32753" d="M135.116,229.322v2.37h-1.21v-2.37Z" transform="translate(-49.376 -212.572)" fill="#263238"/>
      <path id="路径_32754" data-name="路径 32754" d="M138.516,229.322v2.37h-1.21v-2.37Z" transform="translate(-49.376 -212.572)" fill="#263238"/>
      <path id="路径_32755" data-name="路径 32755" d="M141.886,229.322v2.37h-1.21v-2.37Z" transform="translate(-49.376 -212.572)" fill="#263238"/>
      <path id="路径_32756" data-name="路径 32756" d="M49.376,296.252,70.626,246h12.75v50.25H88.9v10.62h-5.52v13.49H71.9v-13.49H49.376Zm22.52,0v-27.94l-11.78,27.94Z" transform="translate(-49.376 -212.572)" fill="#263238"/>
      <path id="路径_32757" data-name="路径 32757" d="M93.256,263.842c0-11.89,6.27-18.69,17.74-18.69s17.741,6.8,17.741,18.69v38.67c0,11.9-6.271,18.7-17.741,18.7s-17.74-6.8-17.74-18.7Zm11.68,39.42c0,5.31,2.34,7.33,6.06,7.33s6.06-2,6.06-7.33V263.1c0-5.31-2.34-7.33-6.06-7.33s-6.06,2-6.06,7.33Z" transform="translate(-49.376 -212.572)" fill="#263238"/>
      <path id="路径_32758" data-name="路径 32758" d="M133.516,296.252,154.766,246h12.75v50.25h5.52v10.62h-5.52v13.49h-11.48v-13.49h-22.52Zm22.52,0v-27.94l-11.79,27.94Z" transform="translate(-49.376 -212.572)" fill="#263238"/>
    </g>
    <path id="路径_32759" data-name="路径 32759" d="M393.351,300.994a27.475,27.475,0,0,1-8.18-1.12l.76-2.23a31.474,31.474,0,0,0,26.63-5.51l1.39,1.91A34.539,34.539,0,0,1,393.351,300.994Z" transform="translate(-2.038 -1.582)" fill="#263238"/>
    <path id="路径_32760" data-name="路径 32760" d="M408.091,318.734c-10.82-15.81-23.13-14.62-23.25-14.61l-.26-2.34c.56-.06,13.85-1.35,25.45,15.62Z" transform="translate(-2.038 -1.712)" fill="#263238"/>
    <path id="路径_32761" data-name="路径 32761" d="M405.351,329.9c-14-4.31-22.41-22.95-22.77-23.74l2.16-1c.08.19,8.34,18.45,21.31,22.44Z" transform="translate(-2.038 -1.793)" fill="#263238"/>
    <line id="直线_1712" data-name="直线 1712" y1="2.52" x2="3.78" transform="translate(410.593 289.664)" fill="none" stroke="#263238" stroke-miterlimit="10" stroke-width="1.082"/>
    <line id="直线_1713" data-name="直线 1713" x2="2.52" y2="5.03" transform="translate(405.973 314.215)" fill="none" stroke="#263238" stroke-miterlimit="10" stroke-width="1.082"/>
    <path id="路径_32762" data-name="路径 32762" d="M403.6,327.934a27.451,27.451,0,0,0,6.09.84" transform="translate(-2.038 -1.832)" fill="none" stroke="#263238" stroke-miterlimit="10" stroke-width="1.082"/>
    <line id="直线_1714" data-name="直线 1714" x2="3.36" y2="1.47" transform="translate(412.063 319.433)" fill="none" stroke="#263238" stroke-miterlimit="10" stroke-width="1.082"/>
    <line id="直线_1715" data-name="直线 1715" x2="3.36" y2="5.25" transform="translate(409.963 320.66)" fill="none" stroke="#263238" stroke-miterlimit="10" stroke-width="1.082"/>
    <line id="直线_1716" data-name="直线 1716" x1="0.63" y2="3.36" transform="translate(407.443 320.88)" fill="none" stroke="#263238" stroke-miterlimit="10" stroke-width="1.082"/>
    <line id="直线_1717" data-name="直线 1717" x2="8.18" transform="translate(416.263 299.249)" fill="none" stroke="#263238" stroke-miterlimit="10" stroke-width="1.082"/>
    <line id="直线_1718" data-name="直线 1718" x2="11.75" y2="3.36" transform="translate(409.963 299.646)" fill="none" stroke="#263238" stroke-miterlimit="10" stroke-width="1.082"/>
    <line id="直线_1719" data-name="直线 1719" y1="1.05" x2="7.55" transform="translate(414.373 294.254)" fill="none" stroke="#263238" stroke-miterlimit="10" stroke-width="1.082"/>
    <line id="直线_1720" data-name="直线 1720" x2="2.1" y2="6.09" transform="translate(387.293 321.071)" fill="none" stroke="#263238" stroke-miterlimit="10" stroke-width="1.082"/>
    <line id="直线_1721" data-name="直线 1721" x2="5.87" y2="9.66" transform="translate(390.023 320.631)" fill="none" stroke="#263238" stroke-miterlimit="10" stroke-width="1.082"/>
    <line id="直线_1722" data-name="直线 1722" x2="5.66" y2="1.89" transform="translate(392.123 315.067)" fill="none" stroke="#263238" stroke-miterlimit="10" stroke-width="1.082"/>
    <path id="路径_32763" data-name="路径 32763" d="M425.431,313.664l-1.89,2.06,1.37,2.44-2.55-1.17-1.89,2.06.32-2.78-2.54-1.17,2.74-.55.33-2.78,1.37,2.44Z" transform="translate(-2.038 -1.738)" fill="#36a6b3" stroke="#263238" stroke-linecap="round" stroke-linejoin="round" stroke-width="0.541"/>
    <path id="路径_32764" data-name="路径 32764" d="M397.751,333.942l-1.89,2.06,1.37,2.44-2.55-1.17-1.89,2.06.32-2.78-2.54-1.17,2.74-.55.33-2.78,1.37,2.44Z" transform="translate(-2.038 -1.908)" fill="#36a6b3" stroke="#263238" stroke-linecap="round" stroke-linejoin="round" stroke-width="0.541"/>
    <path id="路径_32765" data-name="路径 32765" d="M428.371,285.954l-1.9,2.06,1.38,2.44-2.55-1.17-1.89,2.06.32-2.78-2.54-1.17,2.74-.55.32-2.78,1.38,2.44Z" transform="translate(-2.038 -1.506)" fill="#36a6b3" stroke="#263238" stroke-linecap="round" stroke-linejoin="round" stroke-width="0.541"/>
    <path id="路径_32766" data-name="路径 32766" d="M344.48,272.749l-1.89,2.06,1.37,2.44-2.54-1.17-1.9,2.06.32-2.78-2.54-1.17,2.74-.55.33-2.78,1.37,2.44Z" transform="translate(-1.493 -1.396)" fill="#36a6b3" stroke="#263238" stroke-linecap="round" stroke-linejoin="round" stroke-width="0.541"/>
    <path id="路径_32767" data-name="路径 32767" d="M329.219,247.742c0,2.31-1.53,4.18-3.42,4.18s-3.41-1.87-3.41-4.18,1.53-4.18,3.41-4.18S329.219,245.432,329.219,247.742Z" transform="translate(-1.415 -1.171)" fill="#fff" stroke="#263238" stroke-linecap="round" stroke-linejoin="round" stroke-width="1.082"/>
    <path id="路径_32768" data-name="路径 32768" d="M335.979,251.242h-.26l-9.49-1.39a1.77,1.77,0,0,1,.51-3.5l9.49,1.38a1.77,1.77,0,0,1-.25,3.53Z" transform="translate(-1.45 -1.18)" fill="#fff" stroke="#263238" stroke-miterlimit="10" stroke-width="1.082"/>
    <path id="路径_32769" data-name="路径 32769" d="M198.233,325.977c-1.24-1.95-1-4.35.64-5.35s3.88-.25,5.12,1.69.95,4.35-.65,5.36S199.463,327.927,198.233,325.977Z" transform="translate(-0.772 -1.813)" fill="#fff" stroke="#263238" stroke-linecap="round" stroke-linejoin="round" stroke-width="1.082"/>
    <path id="路径_32770" data-name="路径 32770" d="M190.643,326.647a1.859,1.859,0,0,1,.23-.12l8.76-3.91a1.77,1.77,0,0,1,1.44,3.23l-8.76,3.91a1.77,1.77,0,0,1-1.67-3.11Z" transform="translate(-0.741 -1.829)" fill="#fff" stroke="#263238" stroke-miterlimit="10" stroke-width="1.082"/>
    <path id="路径_32771" data-name="路径 32771" d="M380.488,332.436c-1.24-1.95-.95-4.34.64-5.35s3.88-.25,5.12,1.69.95,4.35-.64,5.36S381.718,334.386,380.488,332.436Z" transform="translate(-2.038 -1.867)" fill="#fff" stroke="#263238" stroke-linecap="round" stroke-linejoin="round" stroke-width="1.082"/>
    <path id="路径_32772" data-name="路径 32772" d="M372.908,333.116l.22-.12,8.76-3.91a1.77,1.77,0,1,1,1.584,3.166c-.047.023-.095.045-.144.064l-8.75,3.91a1.77,1.77,0,0,1-1.67-3.11Z" transform="translate(-2.038 -1.883)" fill="#fff" stroke="#263238" stroke-miterlimit="10" stroke-width="1.082"/>
    <path id="路径_32773" data-name="路径 32773" d="M273.764,308.232c-4,0-7.22,1.92-7.22,4.28s3.23,4.28,7.22,4.28,7.23-1.92,7.23-4.28S277.754,308.232,273.764,308.232Zm0,6.49c-2.06,0-3.73-1-3.73-2.21s1.67-2.21,3.73-2.21,3.74,1,3.74,2.21S275.834,314.722,273.764,314.722Z" transform="translate(-1.149 -1.716)" fill="#fff" stroke="#263238" stroke-miterlimit="10" stroke-width="1.082"/>
    <path id="路径_32774" data-name="路径 32774" d="M334.154,330.381l-4.93-2-4.94,2-1.22,4.4,3.42,3.53h5.48l3.41-3.53Zm-3.54,5.62h-2.78l-1.74-1.79.62-2.23,2.51-1,2.5,1,.62,2.23Z" transform="translate(-1.438 -1.895)" fill="#fff" stroke="#263238" stroke-linecap="round" stroke-linejoin="round" stroke-width="1.082"/>
    <path id="路径_32775" data-name="路径 32775" d="M370,315.916l-4.94-2-4.94,2-1.22,4.41,3.42,3.53h5.48l3.42-3.53Zm-3.55,5.63h-2.78l-1.73-1.79.61-2.24,2.51-1,2.51,1,.62,2.24Z" transform="translate(-1.626 -1.773)" fill="#fff" stroke="#263238" stroke-linecap="round" stroke-linejoin="round" stroke-width="1.082"/>
    <path id="路径_32776" data-name="路径 32776" d="M240.391,345.573a1.223,1.223,0,0,1-.41-.07,3.5,3.5,0,0,1-1.62-1.39c-.55-.85-1-2.36-.13-4.7a5.542,5.542,0,0,1,3.85-3.51,7.519,7.519,0,0,1,6.53,1.49,1.17,1.17,0,0,1,.172,1.646l-.012.014a1.18,1.18,0,0,1-1.66.16,5.2,5.2,0,0,0-4.42-1,3.238,3.238,0,0,0-2.25,2.07c-.89,2.35.18,3,.4,3.06a1.2,1.2,0,0,1,.63,1.53A1.159,1.159,0,0,1,240.391,345.573Z" transform="translate(-0.99 -1.956)" fill="#fff" stroke="#263238" stroke-linecap="round" stroke-linejoin="round" stroke-width="1.082"/>
    <path id="路径_32777" data-name="路径 32777" d="M264.771,349.913a3.575,3.575,0,0,1-1.1-.17l-19.19-6.25a3.54,3.54,0,0,1,2.007-6.79c.061.018.123.038.183.06l19.2,6.25a3.54,3.54,0,0,1-1.1,6.9Z" transform="translate(-1.052 -1.988)" fill="#fff" stroke="#263238" stroke-linecap="round" stroke-linejoin="round" stroke-width="1.082"/>
    <path id="路径_32778" data-name="路径 32778" d="M243.9,343.333s.76-4.88,6.86-5" transform="translate(-1.01 -2.285)" fill="none" stroke="#263238" stroke-linecap="round" stroke-linejoin="round" stroke-width="1.082"/>
    <path id="路径_32779" data-name="路径 32779" d="M248.011,344.393s.77-4.87,6.86-5" transform="translate(-1.032 -2.387)" fill="none" stroke="#263238" stroke-linecap="round" stroke-linejoin="round" stroke-width="1.082"/>
    <path id="路径_32780" data-name="路径 32780" d="M251.671,345.763s.76-4.87,6.85-5" transform="translate(-1.05 -2.387)" fill="none" stroke="#263238" stroke-linecap="round" stroke-linejoin="round" stroke-width="1.082"/>
    <path id="路径_32781" data-name="路径 32781" d="M255.481,346.843s.76-4.87,6.85-5" transform="translate(-1.07 -2.387)" fill="none" stroke="#263238" stroke-linecap="round" stroke-linejoin="round" stroke-width="1.082"/>
    <path id="路径_32782" data-name="路径 32782" d="M259.291,348.2s.76-4.87,6.85-5" transform="translate(-1.09 -2.387)" fill="none" stroke="#263238" stroke-linecap="round" stroke-linejoin="round" stroke-width="1.082"/>
    <path id="路径_32783" data-name="路径 32783" d="M264.761,349.843a1.145,1.145,0,0,1-.4-.08,3.469,3.469,0,0,1-1.63-1.38c-.55-.85-1-2.36-.13-4.71a5.58,5.58,0,0,1,3.85-3.51,7.518,7.518,0,0,1,6.53,1.5,1.17,1.17,0,0,1,.172,1.646l-.012.014a1.18,1.18,0,0,1-1.66.16,5.188,5.188,0,0,0-4.42-1,3.211,3.211,0,0,0-2.25,2.06c-.89,2.36.18,3,.4,3.06a1.19,1.19,0,0,1-.45,2.28Z" transform="translate(-1.117 -2.387)" fill="#fff" stroke="#263238" stroke-linecap="round" stroke-linejoin="round" stroke-width="1.082"/>
    <g id="组_22686" data-name="组 22686" transform="translate(177.729 155.35)">
      <path id="路径_32702" data-name="路径 32702" d="M214.421,215.194l-28.664-57.012a3.137,3.137,0,0,0-5.734,2.547l27.392,57.33a3.942,3.942,0,0,0-.956,4.458l28.984,54.465c.956,1.593,3.185,1.911,5.734.956,2.547-1.275,3.821-3.185,2.866-4.778l-25.48-56.054A4.37,4.37,0,0,0,214.421,215.194Z" transform="translate(-179.768 -156.213)" fill="none" stroke="#2e353a" stroke-miterlimit="10" stroke-width="2.594"/>
      <path id="路径_32703" data-name="路径 32703" d="M375.641,215.2,404.3,158.187c.956-1.593,2.549-2.549,4.142-1.593s2.547,2.548,1.591,4.141v.319l-27.391,57.329a3.944,3.944,0,0,1,.956,4.459l-28.985,54.465c-.955,1.592-3.184,1.912-5.733.956-2.547-1.274-3.822-3.186-2.866-4.777l25.48-56.059A4.645,4.645,0,0,1,375.641,215.2Z" transform="translate(-179.768 -156.213)" fill="none" stroke="#2e353a" stroke-miterlimit="10" stroke-width="2.594"/>
      <path id="路径_32704" data-name="路径 32704" d="M386.789,281.383h-183.2l13.918-22.933H372.877Z" transform="translate(-179.768 -156.213)" fill="#fff" stroke="#2e353a" stroke-linecap="round" stroke-linejoin="round" stroke-width="2.594"/>
      <rect id="矩形_5877" data-name="矩形 5877" width="182.878" height="22.933" transform="translate(23.825 125.52)" fill="#fff" stroke="#2e353a" stroke-linecap="round" stroke-linejoin="round" stroke-width="2.594"/>
      <path id="路径_32705" data-name="路径 32705" d="M222.149,288.1h69.116a4.892,4.892,0,0,1,4.777,4.779h0a4.891,4.891,0,0,1-4.777,4.777H222.149a4.891,4.891,0,0,1-4.778-4.777h0C217.053,290.333,219.6,288.1,222.149,288.1Z" transform="translate(-179.768 -156.213)" fill="#36a6b3" stroke="#2e353a" stroke-miterlimit="10" stroke-width="2.594"/>
      <circle id="椭圆_505" data-name="椭圆 505" cx="4.459" cy="4.459" r="4.459" transform="translate(150.342 131.891)" fill="#fff" stroke="#2e353a" stroke-miterlimit="10" stroke-width="2.594"/>
      <path id="路径_32706" data-name="路径 32706" d="M357.424,292.565a4.458,4.458,0,1,0-4.458,4.459h0C355.193,297.341,357.424,295.111,357.424,292.565Z" transform="translate(-179.768 -156.213)" fill="#fff" stroke="#2e353a" stroke-miterlimit="10" stroke-width="2.594"/>
      <circle id="椭圆_506" data-name="椭圆 506" cx="4.459" cy="4.459" r="4.459" transform="translate(187.593 131.891)" fill="#36a6b3" stroke="#2e353a" stroke-miterlimit="10" stroke-width="2.594"/>
    </g>
  </g>
</svg>
